<svg width="30" height="29" viewBox="0 0 30 29" fill="none" xmlns="http://www.w3.org/2000/svg">
<g clip-path="url(#clip0)">
<g filter="url(#filter0_d)">
<path d="M14.667 0C6.66009 0 0.166992 6.4931 0.166992 14.5C0.166992 22.5069 6.66009 29 14.667 29C22.6739 29 29.167 22.5069 29.167 14.5C29.167 6.4931 22.6739 0 14.667 0ZM21.2875 11.3056C21.2939 11.4483 21.297 11.5916 21.297 11.7357C21.297 16.1335 17.9495 21.2048 11.8277 21.2051H11.8279H11.8277C9.94812 21.2051 8.19912 20.6541 6.72624 19.7101C6.98666 19.7408 7.25172 19.7561 7.5201 19.7561C9.07948 19.7561 10.5145 19.2242 11.6538 18.3314C10.1968 18.3044 8.96841 17.3422 8.54449 16.0198C8.74738 16.0587 8.95602 16.08 9.16998 16.08C9.47375 16.08 9.76802 16.039 10.0477 15.9627C8.5248 15.6578 7.37761 14.3119 7.37761 12.7003C7.37761 12.6853 7.37761 12.6718 7.37805 12.6579C7.82653 12.9072 8.33939 13.0572 8.88544 13.074C7.99181 12.4778 7.40438 11.4584 7.40438 10.3037C7.40438 9.69395 7.56921 9.12268 7.85507 8.63084C9.49632 10.6447 11.9491 11.9691 14.7152 12.1083C14.6581 11.8644 14.6287 11.6104 14.6287 11.3494C14.6287 9.51208 16.1193 8.02151 17.9572 8.02151C18.9146 8.02151 19.7793 8.42618 20.3866 9.07312C21.1448 8.92355 21.8568 8.64655 22.5 8.26533C22.2511 9.04214 21.7236 9.69395 21.0364 10.1061C21.7097 10.0256 22.3513 9.84706 22.9476 9.582C22.5022 10.2495 21.9373 10.8358 21.2875 11.3056Z" fill="#E3E3FD"/>
</g>
</g>
<defs>
<filter id="filter0_d" x="-29.833" y="-6" width="89" height="89" filterUnits="userSpaceOnUse" color-interpolation-filters="sRGB">
<feFlood flood-opacity="0" result="BackgroundImageFix"/>
<feColorMatrix in="SourceAlpha" type="matrix" values="0 0 0 0 0 0 0 0 0 0 0 0 0 0 0 0 0 0 127 0"/>
<feOffset dy="24"/>
<feGaussianBlur stdDeviation="15"/>
<feColorMatrix type="matrix" values="0 0 0 0 0.258107 0 0 0 0 0.0585938 0 0 0 0 0.520833 0 0 0 0.2 0"/>
<feBlend mode="normal" in2="BackgroundImageFix" result="effect1_dropShadow"/>
<feBlend mode="normal" in="SourceGraphic" in2="effect1_dropShadow" result="shape"/>
</filter>
<clipPath id="clip0">
<rect width="29" height="29" fill="white" transform="translate(0.166992)"/>
</clipPath>
</defs>
</svg>
