<svg width="30" height="29" viewBox="0 0 30 29" fill="none" xmlns="http://www.w3.org/2000/svg">
<g clip-path="url(#clip0)">
<g filter="url(#filter0_d)">
<path d="M29.584 14.5C29.584 6.49102 23.093 0 15.084 0C7.075 0 0.583984 6.49102 0.583984 14.5C0.583984 22.509 7.075 29 15.084 29C15.1689 29 15.2539 29 15.3389 28.9943V17.7115H12.2236V14.0809H15.3389V11.4074C15.3389 8.30918 17.2307 6.62129 19.9947 6.62129C21.3201 6.62129 22.4586 6.71758 22.7871 6.76289V10.0027H20.884C19.383 10.0027 19.0885 10.7164 19.0885 11.7643V14.0752H22.6852L22.215 17.7059H19.0885V28.4393C25.149 26.7004 29.584 21.1213 29.584 14.5Z" fill="#8427FD"/>
</g>
</g>
<defs>
<filter id="filter0_d" x="-29.416" y="-6" width="89" height="89" filterUnits="userSpaceOnUse" color-interpolation-filters="sRGB">
<feFlood flood-opacity="0" result="BackgroundImageFix"/>
<feColorMatrix in="SourceAlpha" type="matrix" values="0 0 0 0 0 0 0 0 0 0 0 0 0 0 0 0 0 0 127 0"/>
<feOffset dy="24"/>
<feGaussianBlur stdDeviation="15"/>
<feColorMatrix type="matrix" values="0 0 0 0 0.258107 0 0 0 0 0.0585938 0 0 0 0 0.520833 0 0 0 0.2 0"/>
<feBlend mode="normal" in2="BackgroundImageFix" result="effect1_dropShadow"/>
<feBlend mode="normal" in="SourceGraphic" in2="effect1_dropShadow" result="shape"/>
</filter>
<clipPath id="clip0">
<rect width="29" height="29" fill="white" transform="translate(0.583984)"/>
</clipPath>
</defs>
</svg>
