<svg width="30" height="29" viewBox="0 0 30 29" fill="none" xmlns="http://www.w3.org/2000/svg">
<g clip-path="url(#clip0)">
<g filter="url(#filter0_d)">
<path d="M29.5835 14.5C29.5835 6.49102 23.0925 0 15.0835 0C7.07451 0 0.583496 6.49102 0.583496 14.5C0.583496 22.509 7.07451 29 15.0835 29C15.1685 29 15.2534 29 15.3384 28.9943V17.7115H12.2231V14.0809H15.3384V11.4074C15.3384 8.30918 17.2302 6.62129 19.9942 6.62129C21.3196 6.62129 22.4581 6.71758 22.7866 6.76289V10.0027H20.8835C19.3825 10.0027 19.088 10.7164 19.088 11.7643V14.0752H22.6847L22.2146 17.7059H19.088V28.4393C25.1485 26.7004 29.5835 21.1213 29.5835 14.5Z" fill="#E3E3FD"/>
</g>
</g>
<defs>
<filter id="filter0_d" x="-29.4165" y="-6" width="89" height="89" filterUnits="userSpaceOnUse" color-interpolation-filters="sRGB">
<feFlood flood-opacity="0" result="BackgroundImageFix"/>
<feColorMatrix in="SourceAlpha" type="matrix" values="0 0 0 0 0 0 0 0 0 0 0 0 0 0 0 0 0 0 127 0"/>
<feOffset dy="24"/>
<feGaussianBlur stdDeviation="15"/>
<feColorMatrix type="matrix" values="0 0 0 0 0.258107 0 0 0 0 0.0585938 0 0 0 0 0.520833 0 0 0 0.2 0"/>
<feBlend mode="normal" in2="BackgroundImageFix" result="effect1_dropShadow"/>
<feBlend mode="normal" in="SourceGraphic" in2="effect1_dropShadow" result="shape"/>
</filter>
<clipPath id="clip0">
<rect width="29" height="29" fill="white" transform="translate(0.583496)"/>
</clipPath>
</defs>
</svg>
