<svg width="30" height="29" viewBox="0 0 30 29" fill="none" xmlns="http://www.w3.org/2000/svg">
<g clip-path="url(#clip0)">
<g filter="url(#filter0_d)">
<path d="M18.0254 14.5C18.0254 16.0328 16.7828 17.2754 15.25 17.2754C13.7172 17.2754 12.4746 16.0328 12.4746 14.5C12.4746 12.9672 13.7172 11.7246 15.25 11.7246C16.7828 11.7246 18.0254 12.9672 18.0254 14.5Z" fill="#8427FD"/>
</g>
<g filter="url(#filter1_d)">
<path d="M21.7406 9.58958C21.6072 9.22805 21.3943 8.90082 21.1177 8.63222C20.8491 8.35565 20.5221 8.14281 20.1604 8.00939C19.867 7.89545 19.4263 7.75982 18.6145 7.72287C17.7363 7.68282 17.4731 7.67419 15.2499 7.67419C13.0265 7.67419 12.7633 7.6826 11.8853 7.72265C11.0735 7.75982 10.6326 7.89545 10.3394 8.00939C9.97768 8.14281 9.65045 8.35565 9.38207 8.63222C9.10551 8.90082 8.89266 9.22783 8.75903 9.58958C8.64508 9.88296 8.50945 10.3239 8.4725 11.1357C8.43246 12.0136 8.42383 12.2769 8.42383 14.5003C8.42383 16.7234 8.43246 16.9867 8.4725 17.8649C8.50945 18.6766 8.64508 19.1174 8.75903 19.4108C8.89266 19.7725 9.10529 20.0995 9.38185 20.3681C9.65045 20.6447 9.97746 20.8575 10.3392 20.9909C10.6326 21.1051 11.0735 21.2407 11.8853 21.2777C12.7633 21.3177 13.0263 21.3261 15.2497 21.3261C17.4733 21.3261 17.7366 21.3177 18.6143 21.2777C19.426 21.2407 19.867 21.1051 20.1604 20.9909C20.8865 20.7108 21.4605 20.1369 21.7406 19.4108C21.8545 19.1174 21.9901 18.6766 22.0273 17.8649C22.0674 16.9867 22.0758 16.7234 22.0758 14.5003C22.0758 12.2769 22.0674 12.0136 22.0273 11.1357C21.9904 10.3239 21.8547 9.88296 21.7406 9.58958ZM15.2499 18.7755C12.8885 18.7755 10.9742 16.8615 10.9742 14.5001C10.9742 12.1386 12.8885 10.2246 15.2499 10.2246C17.6111 10.2246 19.5254 12.1386 19.5254 14.5001C19.5254 16.8615 17.6111 18.7755 15.2499 18.7755ZM19.6944 11.0547C19.1426 11.0547 18.6953 10.6073 18.6953 10.0555C18.6953 9.50373 19.1426 9.05636 19.6944 9.05636C20.2462 9.05636 20.6936 9.50373 20.6936 10.0555C20.6934 10.6073 20.2462 11.0547 19.6944 11.0547Z" fill="#8427FD"/>
</g>
<g filter="url(#filter2_d)">
<path d="M15.25 0C7.2431 0 0.75 6.4931 0.75 14.5C0.75 22.5069 7.2431 29 15.25 29C23.2569 29 29.75 22.5069 29.75 14.5C29.75 6.4931 23.2569 0 15.25 0ZM23.5259 17.9327C23.4857 18.8191 23.3447 19.4242 23.139 19.9539C22.7064 21.0723 21.8223 21.9564 20.7039 22.389C20.1744 22.5947 19.5691 22.7355 18.683 22.7759C17.7951 22.8164 17.5114 22.8262 15.2502 22.8262C12.9888 22.8262 12.7054 22.8164 11.8173 22.7759C10.9312 22.7355 10.3258 22.5947 9.79635 22.389C9.24056 22.1799 8.73743 21.8522 8.32148 21.4285C7.898 21.0128 7.57033 20.5094 7.36124 19.9539C7.15548 19.4244 7.01454 18.8191 6.97427 17.933C6.93334 17.0448 6.92383 16.7612 6.92383 14.5C6.92383 12.2388 6.93334 11.9552 6.97405 11.0673C7.01432 10.1809 7.15504 9.57581 7.3608 9.04613C7.56989 8.49056 7.89778 7.98721 8.32148 7.57148C8.73721 7.14778 9.24056 6.82011 9.79613 6.61102C10.3258 6.40526 10.9309 6.26454 11.8173 6.22405C12.7052 6.18356 12.9888 6.17383 15.25 6.17383C17.5112 6.17383 17.7948 6.18356 18.6827 6.22427C19.5691 6.26454 20.1742 6.40526 20.7039 6.6108C21.2594 6.81989 21.7628 7.14778 22.1787 7.57148C22.6022 7.98743 22.9301 8.49056 23.139 9.04613C23.345 9.57581 23.4857 10.1809 23.5262 11.0673C23.5667 11.9552 23.5762 12.2388 23.5762 14.5C23.5762 16.7612 23.5667 17.0448 23.5259 17.9327Z" fill="#8427FD"/>
</g>
</g>
<defs>
<filter id="filter0_d" x="-17.5254" y="5.72461" width="65.5508" height="65.5508" filterUnits="userSpaceOnUse" color-interpolation-filters="sRGB">
<feFlood flood-opacity="0" result="BackgroundImageFix"/>
<feColorMatrix in="SourceAlpha" type="matrix" values="0 0 0 0 0 0 0 0 0 0 0 0 0 0 0 0 0 0 127 0"/>
<feOffset dy="24"/>
<feGaussianBlur stdDeviation="15"/>
<feColorMatrix type="matrix" values="0 0 0 0 0.258107 0 0 0 0 0.0585938 0 0 0 0 0.520833 0 0 0 0.2 0"/>
<feBlend mode="normal" in2="BackgroundImageFix" result="effect1_dropShadow"/>
<feBlend mode="normal" in="SourceGraphic" in2="effect1_dropShadow" result="shape"/>
</filter>
<filter id="filter1_d" x="-21.5762" y="1.67419" width="73.6519" height="73.6519" filterUnits="userSpaceOnUse" color-interpolation-filters="sRGB">
<feFlood flood-opacity="0" result="BackgroundImageFix"/>
<feColorMatrix in="SourceAlpha" type="matrix" values="0 0 0 0 0 0 0 0 0 0 0 0 0 0 0 0 0 0 127 0"/>
<feOffset dy="24"/>
<feGaussianBlur stdDeviation="15"/>
<feColorMatrix type="matrix" values="0 0 0 0 0.258107 0 0 0 0 0.0585938 0 0 0 0 0.520833 0 0 0 0.2 0"/>
<feBlend mode="normal" in2="BackgroundImageFix" result="effect1_dropShadow"/>
<feBlend mode="normal" in="SourceGraphic" in2="effect1_dropShadow" result="shape"/>
</filter>
<filter id="filter2_d" x="-29.25" y="-6" width="89" height="89" filterUnits="userSpaceOnUse" color-interpolation-filters="sRGB">
<feFlood flood-opacity="0" result="BackgroundImageFix"/>
<feColorMatrix in="SourceAlpha" type="matrix" values="0 0 0 0 0 0 0 0 0 0 0 0 0 0 0 0 0 0 127 0"/>
<feOffset dy="24"/>
<feGaussianBlur stdDeviation="15"/>
<feColorMatrix type="matrix" values="0 0 0 0 0.258107 0 0 0 0 0.0585938 0 0 0 0 0.520833 0 0 0 0.2 0"/>
<feBlend mode="normal" in2="BackgroundImageFix" result="effect1_dropShadow"/>
<feBlend mode="normal" in="SourceGraphic" in2="effect1_dropShadow" result="shape"/>
</filter>
<clipPath id="clip0">
<rect width="29" height="29" fill="white" transform="translate(0.75)"/>
</clipPath>
</defs>
</svg>
