<svg width="29" height="29" viewBox="0 0 29 29" fill="none" xmlns="http://www.w3.org/2000/svg">
<g clip-path="url(#clip0)">
<g filter="url(#filter0_d)">
<circle cx="14.5" cy="14.5" r="14.5" fill="#E3E3FD"/>
</g>
<path d="M22.0912 14.4726C21.4146 12.1478 20.6515 10.9466 20.6392 10.925C20.5957 10.8719 19.5174 9.58153 16.9184 8.62708L16.575 9.56208C17.8114 10.0162 18.6886 10.5701 19.171 10.9281C17.7308 10.498 16.0174 10.2346 14.5 10.2346C12.9826 10.2346 11.2692 10.498 9.82902 10.9281C10.3114 10.5702 11.1886 10.0162 12.4249 9.56208L12.0815 8.62708C9.48268 9.58153 8.40437 10.8719 8.36087 10.925C8.34856 10.9466 7.58545 12.1478 6.90884 14.4726C6.25673 16.713 6.009 19.8736 6 20.0003C6.05811 20.0912 7.39453 22.3729 11.0367 22.3729L11.9599 21.0361C10.9256 20.7615 9.93935 20.3186 9.03656 19.7177L9.58849 18.8885C11.0449 19.8579 12.7433 20.3704 14.5 20.3704C16.2567 20.3704 17.9551 19.8579 19.4115 18.8885L19.9634 19.7177C19.0607 20.3186 18.0744 20.7615 17.0401 21.0361L17.9633 22.3729C21.6055 22.3729 22.9419 20.0912 23 20.0003C22.991 19.8736 22.7433 16.713 22.0912 14.4726ZM12.1971 17.0785H11.201V15.4183H12.1971V17.0785ZM17.799 17.0785H16.8029V15.4183H17.799V17.0785Z" fill="#17002C"/>
</g>
<defs>
<filter id="filter0_d" x="-30" y="-6" width="89" height="89" filterUnits="userSpaceOnUse" color-interpolation-filters="sRGB">
<feFlood flood-opacity="0" result="BackgroundImageFix"/>
<feColorMatrix in="SourceAlpha" type="matrix" values="0 0 0 0 0 0 0 0 0 0 0 0 0 0 0 0 0 0 127 0"/>
<feOffset dy="24"/>
<feGaussianBlur stdDeviation="15"/>
<feColorMatrix type="matrix" values="0 0 0 0 0.258107 0 0 0 0 0.0585938 0 0 0 0 0.520833 0 0 0 0.2 0"/>
<feBlend mode="normal" in2="BackgroundImageFix" result="effect1_dropShadow"/>
<feBlend mode="normal" in="SourceGraphic" in2="effect1_dropShadow" result="shape"/>
</filter>
<clipPath id="clip0">
<rect width="29" height="29" fill="white"/>
</clipPath>
</defs>
</svg>
