<svg width="30" height="29" viewBox="0 0 30 29" fill="none" xmlns="http://www.w3.org/2000/svg">
<g clip-path="url(#clip0)">
<g filter="url(#filter0_d)">
<path d="M13.0273 17.2165L17.744 14.5L13.0273 11.7834V17.2165Z" fill="#E3E3FD"/>
</g>
<g filter="url(#filter1_d)">
<path d="M14.8335 0C6.82659 0 0.333496 6.4931 0.333496 14.5C0.333496 22.5069 6.82659 29 14.8335 29C22.8404 29 29.3335 22.5069 29.3335 14.5C29.3335 6.4931 22.8404 0 14.8335 0ZM23.8938 14.5148C23.8938 14.5148 23.8938 17.4555 23.5208 18.8735C23.3117 19.6497 22.6997 20.2616 21.9235 20.4705C20.5055 20.8438 14.8335 20.8438 14.8335 20.8438C14.8335 20.8438 9.17629 20.8438 7.74346 20.4557C6.96731 20.2468 6.35532 19.6346 6.14624 18.8585C5.77299 17.4555 5.77299 14.5 5.77299 14.5C5.77299 14.5 5.77299 11.5596 6.14624 10.1415C6.3551 9.36539 6.98213 8.73837 7.74346 8.5295C9.16147 8.15625 14.8335 8.15625 14.8335 8.15625C14.8335 8.15625 20.5055 8.15625 21.9235 8.54433C22.6997 8.75319 23.3117 9.36539 23.5208 10.1415C23.9088 11.5596 23.8938 14.5148 23.8938 14.5148Z" fill="#E3E3FD"/>
</g>
</g>
<defs>
<filter id="filter0_d" x="-16.9727" y="5.78345" width="64.7167" height="65.4331" filterUnits="userSpaceOnUse" color-interpolation-filters="sRGB">
<feFlood flood-opacity="0" result="BackgroundImageFix"/>
<feColorMatrix in="SourceAlpha" type="matrix" values="0 0 0 0 0 0 0 0 0 0 0 0 0 0 0 0 0 0 127 0"/>
<feOffset dy="24"/>
<feGaussianBlur stdDeviation="15"/>
<feColorMatrix type="matrix" values="0 0 0 0 0.258107 0 0 0 0 0.0585938 0 0 0 0 0.520833 0 0 0 0.2 0"/>
<feBlend mode="normal" in2="BackgroundImageFix" result="effect1_dropShadow"/>
<feBlend mode="normal" in="SourceGraphic" in2="effect1_dropShadow" result="shape"/>
</filter>
<filter id="filter1_d" x="-29.6665" y="-6" width="89" height="89" filterUnits="userSpaceOnUse" color-interpolation-filters="sRGB">
<feFlood flood-opacity="0" result="BackgroundImageFix"/>
<feColorMatrix in="SourceAlpha" type="matrix" values="0 0 0 0 0 0 0 0 0 0 0 0 0 0 0 0 0 0 127 0"/>
<feOffset dy="24"/>
<feGaussianBlur stdDeviation="15"/>
<feColorMatrix type="matrix" values="0 0 0 0 0.258107 0 0 0 0 0.0585938 0 0 0 0 0.520833 0 0 0 0.2 0"/>
<feBlend mode="normal" in2="BackgroundImageFix" result="effect1_dropShadow"/>
<feBlend mode="normal" in="SourceGraphic" in2="effect1_dropShadow" result="shape"/>
</filter>
<clipPath id="clip0">
<rect width="29" height="29" fill="white" transform="translate(0.333496)"/>
</clipPath>
</defs>
</svg>
